<svg width="146" height="32" viewBox="0 0 146 32" fill="none" xmlns="http://www.w3.org/2000/svg">
<path d="M12.9971 0.882972V3.80297H8.79712V25.923H5.19712V3.80297H0.997119V0.882972H12.9971ZM22.2199 6.40297H25.8199V25.923H22.2199V24.363C21.8733 25.403 21.0466 25.923 19.7399 25.923H18.2999C15.8999 25.923 14.6999 24.7496 14.6999 22.403V9.96297C14.6999 7.58964 15.8999 6.40297 18.2999 6.40297H19.7399C21.0466 6.40297 21.8733 6.92297 22.2199 7.96297V6.40297ZM19.4999 23.003H20.8999C21.3799 23.003 21.7133 22.8963 21.8999 22.683C22.1133 22.4696 22.2199 22.1096 22.2199 21.603V10.723C22.2199 10.2163 22.1133 9.85631 21.8999 9.64297C21.7133 9.42964 21.3799 9.32297 20.8999 9.32297H19.4999C19.0199 9.32297 18.6999 9.40297 18.5399 9.56297C18.3799 9.69631 18.2999 10.003 18.2999 10.483V21.843C18.2999 22.323 18.3799 22.643 18.5399 22.803C18.6999 22.9363 19.0199 23.003 19.4999 23.003ZM35.954 9.32297H33.274V21.683C33.274 22.163 33.3407 22.483 33.474 22.643C33.634 22.7763 33.954 22.843 34.434 22.843H35.954V25.923H33.394C30.8873 25.923 29.634 24.7496 29.634 22.403V9.32297H27.794V6.40297H29.634V3.08297H33.274V6.40297H35.954V9.32297ZM44.704 9.32297H42.024V21.683C42.024 22.163 42.0907 22.483 42.224 22.643C42.384 22.7763 42.704 22.843 43.184 22.843H44.704V25.923H42.144C39.6373 25.923 38.384 24.7496 38.384 22.403V9.32297H36.544V6.40297H38.384V3.08297H42.024V6.40297H44.704V9.32297ZM50.334 6.40297H54.614C57.094 6.40297 58.334 7.58964 58.334 9.96297V22.403C58.334 24.7496 57.094 25.923 54.614 25.923H50.334C47.8807 25.923 46.654 24.7496 46.654 22.403V9.96297C46.654 7.58964 47.8807 6.40297 50.334 6.40297ZM54.774 21.883V10.443C54.774 9.96297 54.694 9.64297 54.534 9.48297C54.374 9.32297 54.054 9.24297 53.574 9.24297H51.374C50.894 9.24297 50.574 9.32297 50.414 9.48297C50.2807 9.64297 50.214 9.96297 50.214 10.443V21.883C50.214 22.363 50.2807 22.683 50.414 22.843C50.574 23.003 50.894 23.083 51.374 23.083H53.574C54.054 23.083 54.374 23.003 54.534 22.843C54.694 22.683 54.774 22.363 54.774 21.883ZM65.1387 6.40297H69.4187C71.8987 6.40297 73.1387 7.58964 73.1387 9.96297V22.403C73.1387 24.7496 71.8987 25.923 69.4187 25.923H65.1387C62.6853 25.923 61.4587 24.7496 61.4587 22.403V9.96297C61.4587 7.58964 62.6853 6.40297 65.1387 6.40297ZM69.5787 21.883V10.443C69.5787 9.96297 69.4987 9.64297 69.3387 9.48297C69.1787 9.32297 68.8587 9.24297 68.3787 9.24297H66.1787C65.6987 9.24297 65.3787 9.32297 65.2187 9.48297C65.0853 9.64297 65.0187 9.96297 65.0187 10.443V21.883C65.0187 22.363 65.0853 22.683 65.2187 22.843C65.3787 23.003 65.6987 23.083 66.1787 23.083H68.3787C68.8587 23.083 69.1787 23.003 69.3387 22.843C69.4987 22.683 69.5787 22.363 69.5787 21.883ZM75.2634 17.683H78.9034V21.843C78.9034 22.323 78.9834 22.643 79.1434 22.803C79.3034 22.9363 79.6234 23.003 80.1034 23.003H81.2634C81.7434 23.003 82.0634 22.9363 82.2234 22.803C82.3834 22.643 82.4634 22.323 82.4634 21.843V0.882972H86.1034V22.403C86.1034 24.7496 84.8634 25.923 82.3834 25.923H78.9834C76.5034 25.923 75.2634 24.7496 75.2634 22.403V17.683ZM93.4627 6.40297H97.3827C99.8894 6.40297 101.143 7.58964 101.143 9.96297V17.283H93.2627V21.923C93.2627 22.3763 93.3427 22.683 93.5027 22.843C93.6627 23.003 93.9827 23.083 94.4627 23.083H96.3027C96.7827 23.083 97.1027 23.003 97.2627 22.843C97.4227 22.683 97.5027 22.363 97.5027 21.883V20.283H101.023V22.403C101.023 24.7496 99.7827 25.923 97.3027 25.923H93.4627C90.9827 25.923 89.7427 24.7496 89.7427 22.403V9.96297C89.7427 7.58964 90.9827 6.40297 93.4627 6.40297ZM93.2627 14.643H97.5827V10.403C97.5827 9.94964 97.5027 9.64297 97.3427 9.48297C97.2094 9.32297 96.9027 9.24297 96.4227 9.24297H94.4627C93.9827 9.24297 93.6627 9.32297 93.5027 9.48297C93.3427 9.64297 93.2627 9.94964 93.2627 10.403V14.643ZM110.317 6.40297H111.717C114.143 6.40297 115.357 7.58964 115.357 9.96297V25.923H111.757V10.483C111.757 10.003 111.677 9.69631 111.517 9.56297C111.357 9.40297 111.037 9.32297 110.557 9.32297H109.157C108.677 9.32297 108.33 9.42964 108.117 9.64297C107.93 9.85631 107.837 10.2163 107.837 10.723V25.923H104.237V6.40297H107.837V7.96297C108.183 6.92297 109.01 6.40297 110.317 6.40297ZM124.926 6.40297H126.326C128.753 6.40297 129.966 7.58964 129.966 9.96297V25.923H126.366V10.483C126.366 10.003 126.286 9.69631 126.126 9.56297C125.966 9.40297 125.646 9.32297 125.166 9.32297H123.766C123.286 9.32297 122.94 9.42964 122.726 9.64297C122.54 9.85631 122.446 10.2163 122.446 10.723V25.923H118.846V6.40297H122.446V7.96297C122.793 6.92297 123.62 6.40297 124.926 6.40297ZM136.336 31.443H133.936V28.563H135.576C136.722 28.563 137.416 28.123 137.656 27.243L138.056 25.603H136.096L132.016 6.40297H135.696L138.656 22.763L141.416 6.40297H145.056L140.936 27.803C140.349 30.2296 138.816 31.443 136.336 31.443Z" fill="url(#paint0_linear_23_2)"/>
<defs>
<linearGradient id="paint0_linear_23_2" x1="-11.219" y1="-6.46714" x2="164.04" y2="25.923" gradientUnits="userSpaceOnUse">
<stop offset="0.0760133" stop-color="#F9D597"/>
<stop offset="1" stop-color="#FD9700"/>
</linearGradient>
</defs>
</svg>
